<svg width="198" height="34" viewBox="0 0 198 34" fill="none" xmlns="http://www.w3.org/2000/svg">
<rect x="0.221924" y="0.50592" width="197.596" height="32.9326" rx="10" fill="white"/>
<path d="M59.871 22.3599C58.611 22.3599 57.375 21.9159 56.751 21.2679L57.099 20.5839C57.699 21.1719 58.767 21.6039 59.871 21.6039C61.443 21.6039 62.127 20.9439 62.127 20.1159C62.127 17.8119 56.955 19.2279 56.955 16.1199C56.955 14.8839 57.915 13.8159 60.051 13.8159C60.999 13.8159 61.983 14.0919 62.655 14.5599L62.355 15.2679C61.635 14.7999 60.795 14.5719 60.051 14.5719C58.515 14.5719 57.831 15.2559 57.831 16.0959C57.831 18.3999 63.003 17.0079 63.003 20.0679C63.003 21.3039 62.019 22.3599 59.871 22.3599ZM65.1899 14.5959C64.8419 14.5959 64.5659 14.3199 64.5659 13.9839C64.5659 13.6599 64.8419 13.3839 65.1899 13.3839C65.5379 13.3839 65.8139 13.6479 65.8139 13.9719C65.8139 14.3199 65.5499 14.5959 65.1899 14.5959ZM64.7579 22.2879V15.9759H65.6099V22.2879H64.7579ZM73.0085 15.9759H73.8245V21.5199C73.8245 23.6919 72.7565 24.6759 70.6685 24.6759C69.5165 24.6759 68.3885 24.3279 67.7285 23.7039L68.1605 23.0559C68.7605 23.5959 69.6725 23.9199 70.6445 23.9199C72.2405 23.9199 72.9725 23.1879 72.9725 21.6279V20.8239C72.4445 21.6279 71.5445 22.0479 70.5125 22.0479C68.7125 22.0479 67.3445 20.7879 67.3445 18.9759C67.3445 17.1639 68.7125 15.9279 70.5125 15.9279C71.5685 15.9279 72.4805 16.3599 73.0085 17.1879V15.9759ZM70.5965 21.2919C71.9885 21.2919 72.9965 20.3439 72.9965 18.9759C72.9965 17.6079 71.9885 16.6719 70.5965 16.6719C69.2045 16.6719 68.2085 17.6079 68.2085 18.9759C68.2085 20.3439 69.2045 21.2919 70.5965 21.2919ZM79.4231 15.9279C80.9591 15.9279 82.0151 16.8159 82.0151 18.6279V22.2879H81.1631V18.7119C81.1631 17.3799 80.4671 16.6959 79.2671 16.6959C77.9111 16.6959 77.0591 17.5359 77.0591 18.9759V22.2879H76.2071V15.9759H77.0231V17.1399C77.4791 16.3719 78.3311 15.9279 79.4231 15.9279ZM87.9008 14.5959C87.5528 14.5959 87.2768 14.3199 87.2768 13.9839C87.2768 13.6599 87.5528 13.3839 87.9008 13.3839C88.2488 13.3839 88.5248 13.6479 88.5248 13.9719C88.5248 14.3199 88.2608 14.5959 87.9008 14.5959ZM87.4688 22.2879V15.9759H88.3208V22.2879H87.4688ZM93.9075 15.9279C95.4435 15.9279 96.4995 16.8159 96.4995 18.6279V22.2879H95.6475V18.7119C95.6475 17.3799 94.9515 16.6959 93.7515 16.6959C92.3955 16.6959 91.5435 17.5359 91.5435 18.9759V22.2879H90.6915V15.9759H91.5075V17.1399C91.9635 16.3719 92.8155 15.9279 93.9075 15.9279ZM110.437 15.9759H111.217L108.829 22.2879H108.025L106.033 17.1159L104.041 22.2879H103.237L100.861 15.9759H101.677L103.657 21.3399L105.685 15.9759H106.417L108.433 21.3399L110.437 15.9759ZM112.932 14.5959C112.584 14.5959 112.308 14.3199 112.308 13.9839C112.308 13.6599 112.584 13.3839 112.932 13.3839C113.28 13.3839 113.556 13.6479 113.556 13.9719C113.556 14.3199 113.292 14.5959 112.932 14.5959ZM112.5 22.2879V15.9759H113.352V22.2879H112.5ZM118.747 21.2919L119.047 21.9039C118.711 22.2039 118.207 22.3479 117.715 22.3479C116.527 22.3479 115.867 21.6759 115.867 20.5119V16.6959H114.739V15.9759H115.867V14.5959H116.719V15.9759H118.639V16.6959H116.719V20.4639C116.719 21.2079 117.103 21.6159 117.811 21.6159C118.159 21.6159 118.507 21.5079 118.747 21.2919ZM123.814 15.9279C125.35 15.9279 126.406 16.8159 126.406 18.6279V22.2879H125.554V18.7119C125.554 17.3799 124.858 16.6959 123.658 16.6959C122.302 16.6959 121.45 17.5359 121.45 18.9759V22.2879H120.598V13.3839H121.45V17.0799C121.918 16.3479 122.746 15.9279 123.814 15.9279ZM138.315 22.2879L137.307 20.0439H132.627L131.619 22.2879H130.695L134.535 13.8879H135.411L139.251 22.2879H138.315ZM132.951 19.3239H136.983L134.967 14.8119L132.951 19.3239ZM143.713 15.9279C145.513 15.9279 146.857 17.2239 146.857 19.1319C146.857 21.0519 145.513 22.3479 143.713 22.3479C142.705 22.3479 141.841 21.9159 141.313 21.0999V24.6159H140.461V15.9759H141.277V17.2239C141.793 16.3839 142.669 15.9279 143.713 15.9279ZM143.653 21.5919C144.985 21.5919 146.005 20.6079 146.005 19.1319C146.005 17.6679 144.985 16.6719 143.653 16.6719C142.309 16.6719 141.301 17.6679 141.301 19.1319C141.301 20.6079 142.309 21.5919 143.653 21.5919ZM151.846 15.9279C153.646 15.9279 154.99 17.2239 154.99 19.1319C154.99 21.0519 153.646 22.3479 151.846 22.3479C150.838 22.3479 149.974 21.9159 149.446 21.0999V24.6159H148.594V15.9759H149.41V17.2239C149.926 16.3839 150.802 15.9279 151.846 15.9279ZM151.786 21.5919C153.118 21.5919 154.138 20.6079 154.138 19.1319C154.138 17.6679 153.118 16.6719 151.786 16.6719C150.442 16.6719 149.434 17.6679 149.434 19.1319C149.434 20.6079 150.442 21.5919 151.786 21.5919ZM156.727 22.2879V13.3839H157.579V22.2879H156.727ZM165.457 19.1319C165.457 19.2039 165.445 19.2999 165.445 19.3959H160.165C160.261 20.7159 161.269 21.5919 162.649 21.5919C163.417 21.5919 164.101 21.3159 164.581 20.7639L165.061 21.3159C164.497 21.9879 163.621 22.3479 162.625 22.3479C160.657 22.3479 159.313 21.0039 159.313 19.1319C159.313 17.2599 160.621 15.9279 162.397 15.9279C164.173 15.9279 165.457 17.2359 165.457 19.1319ZM162.397 16.6599C161.173 16.6599 160.273 17.5239 160.165 18.7599H164.641C164.533 17.5239 163.633 16.6599 162.397 16.6599Z" fill="#858585"/>
<g clip-path="url(#clip0_1_1878)">
<path d="M33.5335 9.52879C34.551 8.19792 35.9655 8.19144 35.9655 8.19144C35.9655 8.19144 36.1759 9.44268 35.1651 10.648C34.0858 11.9351 32.8591 11.7245 32.8591 11.7245C32.8591 11.7245 32.6288 10.7122 33.5335 9.52879ZM32.9885 12.601C33.5119 12.601 34.4834 11.8869 35.7479 11.8869C37.9245 11.8869 38.7808 13.4239 38.7808 13.4239C38.7808 13.4239 37.106 14.2737 37.106 16.3356C37.106 18.6616 39.1923 19.4632 39.1923 19.4632C39.1923 19.4632 37.7339 23.5368 35.7641 23.5368C34.8594 23.5368 34.156 22.9317 33.2027 22.9317C32.2312 22.9317 31.2672 23.5594 30.6393 23.5594C28.8406 23.5594 26.5681 19.6952 26.5681 16.589C26.5681 13.5329 28.4916 11.9297 30.2958 11.9297C31.4686 11.9297 32.3788 12.601 32.9885 12.601Z" fill="#999999"/>
</g>
<defs>
<clipPath id="clip0_1_1878">
<rect width="12.6242" height="15.3686" fill="white" transform="translate(26.5681 8.19019)"/>
</clipPath>
</defs>
</svg>
