<svg width="198" height="34" viewBox="0 0 198 34" fill="none" xmlns="http://www.w3.org/2000/svg">
<rect x="0.182129" y="0.50592" width="197.596" height="32.9326" rx="10" fill="white"/>
<path d="M57.0851 22.3599C55.8251 22.3599 54.5891 21.9159 53.9651 21.2679L54.3131 20.5839C54.9131 21.1719 55.9811 21.6039 57.0851 21.6039C58.6571 21.6039 59.3411 20.9439 59.3411 20.1159C59.3411 17.8119 54.1691 19.2279 54.1691 16.1199C54.1691 14.8839 55.1291 13.8159 57.2651 13.8159C58.2131 13.8159 59.1971 14.0919 59.8691 14.5599L59.5691 15.2679C58.8491 14.7999 58.0091 14.5719 57.2651 14.5719C55.7291 14.5719 55.0451 15.2559 55.0451 16.0959C55.0451 18.3999 60.2171 17.0079 60.2171 20.0679C60.2171 21.3039 59.2331 22.3599 57.0851 22.3599ZM62.4039 14.5959C62.0559 14.5959 61.7799 14.3199 61.7799 13.9839C61.7799 13.6599 62.0559 13.3839 62.4039 13.3839C62.7519 13.3839 63.0279 13.6479 63.0279 13.9719C63.0279 14.3199 62.7639 14.5959 62.4039 14.5959ZM61.9719 22.2879V15.9759H62.8239V22.2879H61.9719ZM70.2225 15.9759H71.0385V21.5199C71.0385 23.6919 69.9705 24.6759 67.8825 24.6759C66.7305 24.6759 65.6025 24.3279 64.9425 23.7039L65.3745 23.0559C65.9745 23.5959 66.8865 23.9199 67.8585 23.9199C69.4545 23.9199 70.1865 23.1879 70.1865 21.6279V20.8239C69.6585 21.6279 68.7585 22.0479 67.7265 22.0479C65.9265 22.0479 64.5585 20.7879 64.5585 18.9759C64.5585 17.1639 65.9265 15.9279 67.7265 15.9279C68.7825 15.9279 69.6945 16.3599 70.2225 17.1879V15.9759ZM67.8105 21.2919C69.2025 21.2919 70.2105 20.3439 70.2105 18.9759C70.2105 17.6079 69.2025 16.6719 67.8105 16.6719C66.4185 16.6719 65.4225 17.6079 65.4225 18.9759C65.4225 20.3439 66.4185 21.2919 67.8105 21.2919ZM76.6371 15.9279C78.1731 15.9279 79.2291 16.8159 79.2291 18.6279V22.2879H78.3771V18.7119C78.3771 17.3799 77.6811 16.6959 76.4811 16.6959C75.1251 16.6959 74.2731 17.5359 74.2731 18.9759V22.2879H73.4211V15.9759H74.2371V17.1399C74.6931 16.3719 75.5451 15.9279 76.6371 15.9279ZM85.1148 14.5959C84.7668 14.5959 84.4908 14.3199 84.4908 13.9839C84.4908 13.6599 84.7668 13.3839 85.1148 13.3839C85.4628 13.3839 85.7388 13.6479 85.7388 13.9719C85.7388 14.3199 85.4748 14.5959 85.1148 14.5959ZM84.6828 22.2879V15.9759H85.5348V22.2879H84.6828ZM91.1215 15.9279C92.6575 15.9279 93.7135 16.8159 93.7135 18.6279V22.2879H92.8615V18.7119C92.8615 17.3799 92.1655 16.6959 90.9655 16.6959C89.6095 16.6959 88.7575 17.5359 88.7575 18.9759V22.2879H87.9055V15.9759H88.7215V17.1399C89.1775 16.3719 90.0295 15.9279 91.1215 15.9279ZM107.651 15.9759H108.431L106.043 22.2879H105.239L103.247 17.1159L101.255 22.2879H100.451L98.0752 15.9759H98.8912L100.871 21.3399L102.899 15.9759H103.631L105.647 21.3399L107.651 15.9759ZM110.146 14.5959C109.798 14.5959 109.522 14.3199 109.522 13.9839C109.522 13.6599 109.798 13.3839 110.146 13.3839C110.494 13.3839 110.77 13.6479 110.77 13.9719C110.77 14.3199 110.506 14.5959 110.146 14.5959ZM109.714 22.2879V15.9759H110.566V22.2879H109.714ZM115.961 21.2919L116.261 21.9039C115.925 22.2039 115.421 22.3479 114.929 22.3479C113.741 22.3479 113.081 21.6759 113.081 20.5119V16.6959H111.953V15.9759H113.081V14.5959H113.933V15.9759H115.853V16.6959H113.933V20.4639C113.933 21.2079 114.317 21.6159 115.025 21.6159C115.373 21.6159 115.721 21.5079 115.961 21.2919ZM121.028 15.9279C122.564 15.9279 123.62 16.8159 123.62 18.6279V22.2879H122.768V18.7119C122.768 17.3799 122.072 16.6959 120.872 16.6959C119.516 16.6959 118.664 17.5359 118.664 18.9759V22.2879H117.812V13.3839H118.664V17.0799C119.132 16.3479 119.96 15.9279 121.028 15.9279ZM135.169 20.9199V18.0879H136.021V21.2919C135.229 21.9999 134.101 22.3599 132.937 22.3599C130.381 22.3599 128.509 20.5479 128.509 18.0879C128.509 15.6279 130.381 13.8159 132.949 13.8159C134.221 13.8159 135.325 14.2239 136.069 15.0279L135.517 15.5919C134.809 14.8959 133.969 14.6079 132.985 14.6079C130.909 14.6079 129.385 16.0839 129.385 18.0879C129.385 20.0799 130.909 21.5679 132.973 21.5679C133.777 21.5679 134.521 21.3879 135.169 20.9199ZM140.935 22.3479C139.087 22.3479 137.719 21.0039 137.719 19.1319C137.719 17.2599 139.087 15.9279 140.935 15.9279C142.783 15.9279 144.139 17.2599 144.139 19.1319C144.139 21.0039 142.783 22.3479 140.935 22.3479ZM140.935 21.5919C142.279 21.5919 143.275 20.6079 143.275 19.1319C143.275 17.6559 142.279 16.6719 140.935 16.6719C139.591 16.6719 138.583 17.6559 138.583 19.1319C138.583 20.6079 139.591 21.5919 140.935 21.5919ZM148.458 22.3479C146.61 22.3479 145.242 21.0039 145.242 19.1319C145.242 17.2599 146.61 15.9279 148.458 15.9279C150.306 15.9279 151.662 17.2599 151.662 19.1319C151.662 21.0039 150.306 22.3479 148.458 22.3479ZM148.458 21.5919C149.802 21.5919 150.798 20.6079 150.798 19.1319C150.798 17.6559 149.802 16.6719 148.458 16.6719C147.114 16.6719 146.106 17.6559 146.106 19.1319C146.106 20.6079 147.114 21.5919 148.458 21.5919ZM158.43 15.9759H159.246V21.5199C159.246 23.6919 158.178 24.6759 156.09 24.6759C154.938 24.6759 153.81 24.3279 153.15 23.7039L153.582 23.0559C154.182 23.5959 155.094 23.9199 156.066 23.9199C157.662 23.9199 158.394 23.1879 158.394 21.6279V20.8239C157.866 21.6279 156.966 22.0479 155.934 22.0479C154.134 22.0479 152.766 20.7879 152.766 18.9759C152.766 17.1639 154.134 15.9279 155.934 15.9279C156.99 15.9279 157.902 16.3599 158.43 17.1879V15.9759ZM156.018 21.2919C157.41 21.2919 158.418 20.3439 158.418 18.9759C158.418 17.6079 157.41 16.6719 156.018 16.6719C154.626 16.6719 153.63 17.6079 153.63 18.9759C153.63 20.3439 154.626 21.2919 156.018 21.2919ZM161.628 22.2879V13.3839H162.48V22.2879H161.628ZM170.359 19.1319C170.359 19.2039 170.347 19.2999 170.347 19.3959H165.067C165.163 20.7159 166.171 21.5919 167.551 21.5919C168.319 21.5919 169.003 21.3159 169.483 20.7639L169.963 21.3159C169.399 21.9879 168.523 22.3479 167.527 22.3479C165.559 22.3479 164.215 21.0039 164.215 19.1319C164.215 17.2599 165.523 15.9279 167.299 15.9279C169.075 15.9279 170.359 17.2359 170.359 19.1319ZM167.299 16.6599C166.075 16.6599 165.175 17.5239 165.067 18.7599H169.543C169.435 17.5239 168.535 16.6599 167.299 16.6599Z" fill="#858585"/>
<g clip-path="url(#clip0_1_1869)">
<path d="M36.4001 17.116C36.4001 16.4864 36.3478 16.0269 36.2346 15.5504H28.877V18.3923H33.1957C33.1087 19.0985 32.6385 20.1621 31.5936 20.8768L31.579 20.972L33.9053 22.7331L34.0665 22.7488C35.5467 21.4129 36.4001 19.4474 36.4001 17.116Z" fill="#4285F4"/>
<path d="M28.8769 24.6037C30.9927 24.6037 32.769 23.923 34.0664 22.7488L31.5936 20.8768C30.9318 21.3278 30.0436 21.6426 28.8769 21.6426C26.8046 21.6426 25.0457 20.3068 24.4187 18.4604L24.3268 18.468L21.9079 20.2974L21.8762 20.3834C23.1649 22.8849 25.8119 24.6037 28.8769 24.6037Z" fill="#34A853"/>
<path d="M24.4187 18.4604C24.2532 17.9839 24.1575 17.4733 24.1575 16.9458C24.1575 16.4183 24.2532 15.9077 24.41 15.4313L24.4056 15.3298L21.9563 13.471L21.8762 13.5083C21.345 14.5463 21.0403 15.7121 21.0403 16.9458C21.0403 18.1796 21.345 19.3453 21.8762 20.3833L24.4187 18.4604Z" fill="#FBBC05"/>
<path d="M28.8769 12.249C30.3484 12.249 31.341 12.8701 31.907 13.3892L34.1187 11.279C32.7604 10.0452 30.9927 9.28795 28.8769 9.28795C25.8119 9.28795 23.1649 11.0067 21.8762 13.5083L24.41 15.4313C25.0457 13.5849 26.8046 12.249 28.8769 12.249Z" fill="#EB4335"/>
</g>
<defs>
<clipPath id="clip0_1_1869">
<rect width="15.3686" height="15.3686" fill="white" transform="translate(21.0396 9.28795)"/>
</clipPath>
</defs>
</svg>
